<svg xmlns="http://www.w3.org/2000/svg" viewBox="0 0 400 260" width="400" height="260" role="img" aria-label="Meducation"><style>.page{stroke:none}.rail{fill:none;stroke-width:6;stroke-linecap:round}.wordmark{font-family:Inter,ui-sans-serif,system-ui,-apple-system,BlinkMacSystemFont,"Segoe UI",sans-serif;font-weight:800;letter-spacing:-.04em}.left{fill:#C45117}.right{fill:#EF9B6B}.left .rail{stroke:#C45117}.right .rail{stroke:#EF9B6B}.emphasis{fill:#C45117}.remainder{fill:#262626}@media(prefers-color-scheme:dark){.left{fill:#EF9B6B}.right{fill:#FFC39E}.left .rail{stroke:#EF9B6B}.right .rail{stroke:#FFC39E}.emphasis{fill:#EF9B6B}.remainder{fill:#FFFFFF}}</style><svg x="104" y="0" width="192" height="168" viewBox="0 0 128 112" preserveAspectRatio="xMidYMid meet"><g class="left"><path class="page" d="M 10 19 L 55.5 42 Q 60 44.3 60 49.3 L 60 102 Q 60 108 54.8 104.7 L 30.8 89.4 Q 27 87 23.2 89.4 L 9.2 98.3 Q 4 101.6 4 95.5 L 4 23 Q 4 16 10 19 Z"/><path class="rail" d="M 13 8 L 57 30.2"/></g><g class="right" transform="translate(128 0) scale(-1 1)"><path class="page" d="M 10 19 L 55.5 42 Q 60 44.3 60 49.3 L 60 102 Q 60 108 54.8 104.7 L 30.8 89.4 Q 27 87 23.2 89.4 L 9.2 98.3 Q 4 101.6 4 95.5 L 4 23 Q 4 16 10 19 Z"/><path class="rail" d="M 13 8 L 57 30.2"/></g></svg><svg x="0" y="172" width="400" height="88" viewBox="0 0 400 88" preserveAspectRatio="xMidYMid meet"><text x="4" y="68" class="wordmark" font-size="72" font-weight="800" letter-spacing="-.04em"><tspan class="emphasis">Med</tspan><tspan class="remainder">ucation</tspan></text></svg></svg>
